<mxfile host="app.diagrams.net" modified="2022-07-10T14:38:25.215Z" agent="5.0 (Windows NT 10.0; Win64; x64) AppleWebKit/537.36 (KHTML, like Gecko) Chrome/103.0.5060.114 Safari/537.36" etag="gKLgQwT2jnKZJEiBZLj7" version="20.0.4" type="github">
  <diagram id="ZYOmPcb9h9hwvHMzwL5M" name="App Views - V1.0">
    <mxGraphModel dx="1422" dy="790" grid="1" gridSize="10" guides="1" tooltips="1" connect="1" arrows="1" fold="1" page="1" pageScale="1" pageWidth="827" pageHeight="1169" math="0" shadow="0">
      <root>
        <mxCell id="0" />
        <mxCell id="1" parent="0" />
        <mxCell id="9aROIoHJ-b1qMWZWiEgb-24" style="edgeStyle=orthogonalEdgeStyle;curved=1;orthogonalLoop=1;jettySize=auto;html=1;" edge="1" parent="1" source="9aROIoHJ-b1qMWZWiEgb-20" target="9aROIoHJ-b1qMWZWiEgb-22">
          <mxGeometry relative="1" as="geometry" />
        </mxCell>
        <mxCell id="9aROIoHJ-b1qMWZWiEgb-20" value="&lt;p style=&quot;margin:0px;margin-top:6px;text-align:center;&quot;&gt;&lt;b&gt;Home View&lt;/b&gt;&lt;/p&gt;&lt;hr&gt;&lt;p style=&quot;margin:0px;margin-left:8px;&quot;&gt;+ Show 4 Categories&lt;/p&gt;&lt;p style=&quot;margin:0px;margin-left:8px;&quot;&gt;+ OnClick -&amp;gt; Navigate&lt;/p&gt;" style="align=left;overflow=fill;html=1;dropTarget=0;" vertex="1" parent="1">
          <mxGeometry x="60" y="110" width="180" height="90" as="geometry" />
        </mxCell>
        <mxCell id="9aROIoHJ-b1qMWZWiEgb-21" value="" style="shape=component;jettyWidth=8;jettyHeight=4;" vertex="1" parent="9aROIoHJ-b1qMWZWiEgb-20">
          <mxGeometry x="1" width="20" height="20" relative="1" as="geometry">
            <mxPoint x="-24" y="4" as="offset" />
          </mxGeometry>
        </mxCell>
        <mxCell id="qt4HGgiyEx14loZqVaDJ-3" style="edgeStyle=orthogonalEdgeStyle;curved=1;orthogonalLoop=1;jettySize=auto;html=1;" edge="1" parent="1" source="9aROIoHJ-b1qMWZWiEgb-22" target="qt4HGgiyEx14loZqVaDJ-1">
          <mxGeometry relative="1" as="geometry" />
        </mxCell>
        <mxCell id="3hQ9wbQUs_y3kis21TQi-4" style="edgeStyle=orthogonalEdgeStyle;orthogonalLoop=1;jettySize=auto;html=1;strokeColor=default;curved=1;" edge="1" parent="1" source="9aROIoHJ-b1qMWZWiEgb-22" target="qt4HGgiyEx14loZqVaDJ-4">
          <mxGeometry relative="1" as="geometry" />
        </mxCell>
        <mxCell id="3hQ9wbQUs_y3kis21TQi-5" style="edgeStyle=orthogonalEdgeStyle;curved=1;orthogonalLoop=1;jettySize=auto;html=1;strokeColor=default;" edge="1" parent="1" source="9aROIoHJ-b1qMWZWiEgb-22" target="3hQ9wbQUs_y3kis21TQi-2">
          <mxGeometry relative="1" as="geometry">
            <Array as="points">
              <mxPoint x="360" y="310" />
            </Array>
          </mxGeometry>
        </mxCell>
        <mxCell id="9aROIoHJ-b1qMWZWiEgb-22" value="&lt;p style=&quot;margin:0px;margin-top:6px;text-align:center;&quot;&gt;&lt;b&gt;Category View&lt;/b&gt;&lt;/p&gt;&lt;hr&gt;&lt;p style=&quot;margin:0px;margin-left:8px;&quot;&gt;+ Show TODOs List&lt;/p&gt;&lt;p style=&quot;margin:0px;margin-left:8px;&quot;&gt;+ OnAddItem&lt;/p&gt;&lt;p style=&quot;margin:0px;margin-left:8px;&quot;&gt;+ OnClickItem&lt;/p&gt;" style="align=left;overflow=fill;html=1;dropTarget=0;" vertex="1" parent="1">
          <mxGeometry x="60" y="290" width="180" height="90" as="geometry" />
        </mxCell>
        <mxCell id="9aROIoHJ-b1qMWZWiEgb-23" value="" style="shape=component;jettyWidth=8;jettyHeight=4;" vertex="1" parent="9aROIoHJ-b1qMWZWiEgb-22">
          <mxGeometry x="1" width="20" height="20" relative="1" as="geometry">
            <mxPoint x="-24" y="4" as="offset" />
          </mxGeometry>
        </mxCell>
        <mxCell id="qt4HGgiyEx14loZqVaDJ-1" value="&lt;p style=&quot;margin:0px;margin-top:6px;text-align:center;&quot;&gt;&lt;b&gt;TODO Details View&lt;/b&gt;&lt;/p&gt;&lt;hr&gt;&lt;p style=&quot;margin:0px;margin-left:8px;&quot;&gt;+ Header&lt;/p&gt;&lt;p style=&quot;margin:0px;margin-left:8px;&quot;&gt;+ Short Description (50 words)&lt;/p&gt;&lt;p style=&quot;margin:0px;margin-left:8px;&quot;&gt;+ Full Description&lt;/p&gt;" style="align=left;overflow=fill;html=1;dropTarget=0;" vertex="1" parent="1">
          <mxGeometry x="60" y="480" width="180" height="90" as="geometry" />
        </mxCell>
        <mxCell id="qt4HGgiyEx14loZqVaDJ-2" value="" style="shape=component;jettyWidth=8;jettyHeight=4;" vertex="1" parent="qt4HGgiyEx14loZqVaDJ-1">
          <mxGeometry x="1" width="20" height="20" relative="1" as="geometry">
            <mxPoint x="-24" y="4" as="offset" />
          </mxGeometry>
        </mxCell>
        <mxCell id="3hQ9wbQUs_y3kis21TQi-6" style="edgeStyle=orthogonalEdgeStyle;curved=1;orthogonalLoop=1;jettySize=auto;html=1;strokeColor=default;" edge="1" parent="1" source="qt4HGgiyEx14loZqVaDJ-4" target="3hQ9wbQUs_y3kis21TQi-2">
          <mxGeometry relative="1" as="geometry">
            <Array as="points">
              <mxPoint x="410" y="350" />
              <mxPoint x="470" y="350" />
            </Array>
          </mxGeometry>
        </mxCell>
        <mxCell id="qt4HGgiyEx14loZqVaDJ-4" value="&lt;p style=&quot;margin:0px;margin-top:6px;text-align:center;&quot;&gt;&lt;b&gt;Create TODO View&lt;/b&gt;&lt;/p&gt;&lt;hr&gt;&lt;p style=&quot;margin:0px;margin-left:8px;&quot;&gt;+ Header&lt;/p&gt;&lt;p style=&quot;margin:0px;margin-left:8px;&quot;&gt;+ Short Description (50 words)&lt;/p&gt;&lt;p style=&quot;margin:0px;margin-left:8px;&quot;&gt;+ Full Description&lt;/p&gt;" style="align=left;overflow=fill;html=1;dropTarget=0;" vertex="1" parent="1">
          <mxGeometry x="290" y="430" width="180" height="90" as="geometry" />
        </mxCell>
        <mxCell id="qt4HGgiyEx14loZqVaDJ-5" value="" style="shape=component;jettyWidth=8;jettyHeight=4;" vertex="1" parent="qt4HGgiyEx14loZqVaDJ-4">
          <mxGeometry x="1" width="20" height="20" relative="1" as="geometry">
            <mxPoint x="-24" y="4" as="offset" />
          </mxGeometry>
        </mxCell>
        <mxCell id="3hQ9wbQUs_y3kis21TQi-2" value="&lt;p style=&quot;margin:0px;margin-top:6px;text-align:center;&quot;&gt;&lt;b&gt;DataService&lt;/b&gt;&lt;/p&gt;&lt;hr&gt;&lt;p style=&quot;margin:0px;margin-left:8px;&quot;&gt;+ GetItems&lt;/p&gt;&lt;p style=&quot;margin:0px;margin-left:8px;&quot;&gt;+ AddItems&lt;/p&gt;&lt;p style=&quot;margin:0px;margin-left:8px;&quot;&gt;&lt;br&gt;&lt;/p&gt;&lt;p style=&quot;margin:0px;margin-left:8px;&quot;&gt;&lt;br&gt;&lt;/p&gt;" style="align=left;overflow=fill;html=1;dropTarget=0;" vertex="1" parent="1">
          <mxGeometry x="324" y="180" width="180" height="90" as="geometry" />
        </mxCell>
        <mxCell id="3hQ9wbQUs_y3kis21TQi-3" value="" style="shape=component;jettyWidth=8;jettyHeight=4;" vertex="1" parent="3hQ9wbQUs_y3kis21TQi-2">
          <mxGeometry x="1" width="20" height="20" relative="1" as="geometry">
            <mxPoint x="-24" y="4" as="offset" />
          </mxGeometry>
        </mxCell>
      </root>
    </mxGraphModel>
  </diagram>
</mxfile>
